<?xml version="1.0" encoding="iso-8859-1"?>
<!-- Uploaded to: SVG Repo, www.svgrepo.com, Generator: SVG Repo Mixer Tools -->
<svg version="1.1" id="Layer_1" xmlns="http://www.w3.org/2000/svg" xmlns:xlink="http://www.w3.org/1999/xlink" 
	 viewBox="0 0 512 512" xml:space="preserve">
<g>
	<rect x="122.435" y="66.783" style="fill:#57A4FF;" width="33.391" height="66.783"/>
	<rect x="155.826" style="fill:#57A4FF;" width="33.391" height="66.783"/>
	<rect x="356.174" y="66.783" style="fill:#57A4FF;" width="33.391" height="66.783"/>
	<rect x="322.783" style="fill:#57A4FF;" width="33.391" height="66.783"/>
	<path style="fill:#57A4FF;" d="M422.957,200.348v-66.783h-33.391v66.783h-267.13v-66.783H89.043v66.783H0v155.826h33.391v122.435
		h33.391V512h378.435v-33.391h33.391V356.174H512V200.348H422.957z"/>
</g>
<rect x="33.391" y="356.174" width="33.391" height="122.435"/>
<rect x="66.783" y="478.609" width="378.435" height="33.391"/>
<rect x="445.217" y="356.174" width="33.391" height="122.435"/>
<polygon points="422.957,200.348 422.957,133.565 389.565,133.565 389.565,200.348 122.435,200.348 122.435,133.565 89.043,133.565 
	89.043,200.348 0,200.348 0,356.174 33.391,356.174 33.391,233.739 478.609,233.739 478.609,356.174 512,356.174 512,200.348 "/>
<rect x="200.348" y="267.13" width="33.391" height="178.087"/>
<rect x="278.261" y="267.13" width="33.391" height="178.087"/>
<rect x="356.174" y="267.13" width="33.391" height="178.087"/>
<rect x="122.435" y="267.13" width="33.391" height="178.087"/>
<rect x="122.435" y="66.783" width="33.391" height="66.783"/>
<rect x="155.826" width="33.391" height="66.783"/>
<rect x="356.174" y="66.783" width="33.391" height="66.783"/>
<rect x="322.783" width="33.391" height="66.783"/>
</svg>